# xmcd
#
# Track frame offsets:
#	150
#	16450
#	37697
#	54940
#	70255
#	86877
#	102217
#	117365
#	136572
#	156484
#	172917
#	189217
#	210465
#	227707
#	243022
#	259645
#	274985
#	290132
#	309337
#	329252
#
# Disc length: 4609 seconds
#
# Revision: 1
# Processed by: cddbd v1.5.2PL0 Copyright (c) Steve Scherf et al.
# Submitted via: audiograbber 1.83.01
#
DISCID=0b11ff14
DTITLE=Various Artist - THMC0505
DYEAR=2005
DGENRE=Country - Karaoke
TTITLE0=Toby Keith - Honky Tonk U (Vocals)
TTITLE1=Tim McGraw - Drugs or Jesus (Vocals)
TTITLE2=Dierks Bentley - Lot of Leavin' Left to Do (Vocals)
TTITLE3=Blake Shelton - Goodbye Time (Vocals)
TTITLE4=SheDaisy - Don't Worry 'Bout A Thing (Vocals)
TTITLE5=Gretchen Wilson - Homewrecker (Vocals)
TTITLE6=Julie Roberts - Wake Up Older (Vocals)
TTITLE7=Big and Rich - Big Time (Vocals)
TTITLE8=Rascal Flatts - Skin (Vocals)
TTITLE9=Trick Pony - It's A Heartache (Vocals)
TTITLE10=Toby Keith - Honky Tonk U
TTITLE11=Tim McGraw - Drugs or Jesus
TTITLE12=Dierks Bentley - Lot of Leavin' Left to Do
TTITLE13=Blake Shelton - Goodbye Time
TTITLE14=SheDaisy - Don't Worry 'Bout A Thing
TTITLE15=Gretchen Wilson - Homewrecker
TTITLE16=Julie Roberts - Wake Up Older
TTITLE17=Big and Rich - Big Time
TTITLE18=Rascal Flatts - Skin
TTITLE19=Trick Pony - It's A Heartache
EXTD=
EXTT0=
EXTT1=
EXTT2=
EXTT3=
EXTT4=
EXTT5=
EXTT6=
EXTT7=
EXTT8=
EXTT9=
EXTT10=
EXTT11=
EXTT12=
EXTT13=
EXTT14=
EXTT15=
EXTT16=
EXTT17=
EXTT18=
EXTT19=
PLAYORDER=
